# xmcd
#
# Track frame offsets:
#	150
#	15609
#	32259
#	40970
#	52850
#	65261
#	79447
#	91804
#	108813
#	121620
#	135949
#	152099
#	165282
#	179826
#	198582
#	216863
#	232109
#	244525
#	258874
#	267387
#	291500
#
# Disc length: 4440 seconds
#
# Revision: 0
# Processed by: cddbd v1.5.1PL0 Copyright (c) Steve Scherf et al.
# Submitted via: dBpowerAMP V4.0
#
DISCID=17115615
DTITLE=Charles Aznavour - Aznavour, Lo mejor de...
DYEAR=1996
DGENRE=Ballad
TTITLE0=Los placeres antiguos
TTITLE1=Quien
TTITLE2=Cuando no pueda más
TTITLE3=De quererte así
TTITLE4=Junto a ti
TTITLE5=Te espero
TTITLE6=Venecia sin ti
TTITLE7=Las dos guitarras
TTITLE8=Ayer aun
TTITLE9=Con
TTITLE10=Y yo en mi rincón
TTITLE11=Idiota, te quiero
TTITLE12=Yo te daré calor
TTITLE13=Buen aniversario
TTITLE14=Los días felices
TTITLE15=Cuando estás junto a mi
TTITLE16=Y por tanto
TTITLE17=Tú y yo mi amor
TTITLE18=Quédate
TTITLE19=Apaga la luz
TTITLE20=DATA
EXTD=
EXTT0=
EXTT1=
EXTT2=
EXTT3=
EXTT4=
EXTT5=
EXTT6=
EXTT7=
EXTT8=
EXTT9=
EXTT10=
EXTT11=
EXTT12=
EXTT13=
EXTT14=
EXTT15=
EXTT16=
EXTT17=
EXTT18=
EXTT19=
EXTT20=
PLAYORDER=
